{"title":"Paradise 2013 DVDrip Xvid Ac3-MiLLENiUM","uid":9434723,"size":1400799788,"categoryP":"video","categoryS":"movies","magnet":"?xt=urn:btih:fc9b8fbd95cac441a8b17c3b5767d407bf06cb22&amp;dn=Paradise+2013+DVDrip+Xvid+Ac3-MiLLENiUM&amp;tr=udp%3A%2F%2Ftracker.openbittorrent.com%3A80&amp;tr=udp%3A%2F%2Fopen.demonii.com%3A1337&amp;tr=udp%3A%2F%2Ftracker.coppersurfer.tk%3A6969&amp;tr=udp%3A%2F%2Fexodus.desync.com%3A6969","seeders":2,"leechers":0,"uploader":"xxxlavalxxx","files":-1,"time":1388878298,"description":" &lt;a href=&quot;\nhttp://www.imdb.com/title/tt1262990/&quot; rel=&quot;nofollow&quot; target=&quot;_NEW&quot;&gt;\nhttp://www.imdb.com/title/tt1262990/&lt;/a&gt;\n\n\nAfter surviving a plane crash a young conservative woman suffers a crisis of faith.\n\nDirector: Diablo Cody\nWriter: Diablo Cody\nStars: Julianne Hough, Nick Offerman, Holly Hunter \nGenres: Comedy | Drama\nCountry: USA\nLanguage: English\n\n\n\nGeneral\nComplete name                            : Paradise 2013 DVDrip Xvid Ac3-MiLLENiUM.avi\nSource                                   : DVDR [thanks]\nFormat                                   : AVI\nFormat/Info                              : Audio Video Interleave\nFile size                                : 1.26 GiB\nDuration                                 : 1h 26mn\nOverall bit rate                         : 2 091 Kbps\n\nVideo\nID                                       : 0\nFormat                                   : MPEG-4 Visual\nFormat profile                           : Advanced Simple@L5\nFormat settings, BVOP                    : 2\nFormat settings, QPel                    : No\nFormat settings, GMC                     : No warppoints\nFormat settings, Matrix                  : Default (MPEG)\nCodec ID                                 : XVID\nCodec ID/Hint                            : XviD\nDuration                                 : 1h 26mn\nBit rate                                 : 1 700 Kbps\nWidth                                    : 720 pixels\nHeight                                   : 384 pixels\nDisplay aspect ratio                     : 1.85:1\nFrame rate                               : 23.976 fps\nColor space                              : YUV\nChroma subsampling                       : 4:2:0\nBit depth                                : 8 bits\nScan type                                : Progressive\nCompression mode                         : Lossy\nBits/(Pixel*Frame)                       : 0.256\nStream size                              : 1.03 GiB (81%)\nWriting library                          : XviD 1.2.1 (UTC 2008-12-04)\n\nAudio\nID                                       : 1\nFormat                                   : AC-3\nFormat/Info                              : Audio Coding 3\nMode extension                           : CM (complete main)\nFormat settings, Endianness              : Big\nCodec ID                                 : 2000\nDuration                                 : 1h 26mn\nBit rate mode                            : Constant\nBit rate                                 : 384 Kbps\nChannel count                            : 6 channels\nChannel positions                        : Front: L C R, Side: L R, LFE\nSampling rate                            : 48.0 KHz\nBit depth                                : 16 bits\nCompression mode                         : Lossy\nStream size                              : 238 MiB (18%)\nAlignment                                : Aligned on interleaves\nInterleave, duration                     : 64 ms (1.53 video frames)\nInterleave, preload duration             : 192 ms\nTitle                                    : VTS_01_1 T80 3_2ch 448Kbps DELAY 0ms_new\n\n\nscreens\n &lt;a href=&quot;\nhttp://i.imgur.com/laq2nU0.jpg&quot; rel=&quot;nofollow&quot; target=&quot;_NEW&quot;&gt;\nhttp://i.imgur.com/laq2nU0.jpg&lt;/a&gt; &lt;a href=&quot;\nhttp://i.imgur.com/M3Iqzeh.jpg&quot; rel=&quot;nofollow&quot; target=&quot;_NEW&quot;&gt;\nhttp://i.imgur.com/M3Iqzeh.jpg&lt;/a&gt; &lt;a href=&quot;\nhttp://i.imgur.com/A1w4YXd.jpg&quot; rel=&quot;nofollow&quot; target=&quot;_NEW&quot;&gt;\nhttp://i.imgur.com/A1w4YXd.jpg&lt;/a&gt;","torrent":{"xt":"urn:btih:fc9b8fbd95cac441a8b17c3b5767d407bf06cb22","amp;dn":"Paradise+2013+DVDrip+Xvid+Ac3-MiLLENiUM","amp;tr":["udp%3A%2F%2Ftracker.openbittorrent.com%3A80","udp%3A%2F%2Fopen.demonii.com%3A1337","udp%3A%2F%2Ftracker.coppersurfer.tk%3A6969","udp%3A%2F%2Fexodus.desync.com%3A6969"],"infoHash":"fc9b8fbd95cac441a8b17c3b5767d407bf06cb22","infoHashBuffer":{"type":"Buffer","data":[252,155,143,189,149,202,196,65,168,177,124,59,87,103,212,7,191,6,203,34]},"announce":[],"urlList":[]}}